PathFileType	4	(X/Y/Z)	s03c0301.trc
DataRate	CameraRate	NumFrames	NumMarkers	Units	OrigDataRate	OrigDataStartFrame	OrigNumFrames
200	200	4	52	mm	200	0	2000
Frame#	Time	racr			lacr			c7			jug			rlel			rdr			llel			ldr			s2			lic			ric			lasi			rasi			rpsi			lpsi			rgt			lgt			rth1			rth2			rth3			rth4			rlfc			rmfc			rsh1			rsh2			rsh3			rsh4			rlmal			rmmal			rcal			rtoe			rmt5			rmt1			lth1			lth2			lth4			lth3			llfc			lmfc			lsh1			lsh2			lsh3			lsh4			llmal			lmmal			lcal			ltoe			lmt1			lmt5			SBIKE			LBIKE			RBIKE			
		X1	Y1	Z1	X2	Y2	Z2	X3	Y3	Z3	X4	Y4	Z4	X5	Y5	Z5	X6	Y6	Z6	X7	Y7	Z7	X8	Y8	Z8	X9	Y9	Z9	X10	Y10	Z10	X11	Y11	Z11	X12	Y12	Z12	X13	Y13	Z13	X14	Y14	Z14	X15	Y15	Z15	X16	Y16	Z16	X17	Y17	Z17	X18	Y18	Z18	X19	Y19	Z19	X20	Y20	Z20	X21	Y21	Z21	X22	Y22	Z22	X23	Y23	Z23	X24	Y24	Z24	X25	Y25	Z25	X26	Y26	Z26	X27	Y27	Z27	X28	Y28	Z28	X29	Y29	Z29	X30	Y30	Z30	X31	Y31	Z31	X32	Y32	Z32	X33	Y33	Z33	X34	Y34	Z34	X35	Y35	Z35	X36	Y36	Z36	X37	Y37	Z37	X38	Y38	Z38	X39	Y39	Z39	X40	Y40	Z40	X41	Y41	Z41	X42	Y42	Z42	X43	Y43	Z43	X44	Y44	Z44	X45	Y45	Z45	X46	Y46	Z46	X47	Y47	Z47	X48	Y48	Z48	X49	Y49	Z49	X50	Y50	Z50	X51	Y51	Z51	X52	Y52	Z52	
0	0.0000	483.372409	1400.491076	-88.642621	474.901852	1410.253498	-404.293284	413.269299	1482.353030	-244.820339	443.057540	1315.159228	-238.897512	534.236393	1139.553921	-1.142933	746.666511	943.419526	-51.443782	552.727147	1152.397124	-462.201838	751.524337	925.051609	-423.645297	-107.728731	1202.336236	-242.296149	75.134491	1203.264541	-421.635563	71.592919	1223.350790	-60.697322	84.476172	1128.851540	-392.649302	80.789507	1158.361666	-99.243693	-76.695616	1253.381241	-198.910749	-69.862264	1248.555380	-281.144972	-0.252192	1140.723266	-36.800172	2.854705	1097.985256	-440.923987	120.956267	1048.419388	-13.122574	209.866469	1044.182449	-10.252309	283.521741	998.714538	-11.032041	221.939838	1076.160432	-24.545231	402.025397	928.385604	-32.336409	412.453719	918.427051	-158.787131	348.032873	769.640083	-19.224901	339.640962	682.692526	-37.262258	285.467528	612.295721	-44.704540	365.615485	675.025939	-63.722722	234.653026	490.313993	-71.315499	257.183803	508.424547	-158.843443	174.651136	434.553988	-113.434467	480.952449	475.687411	-116.845910	367.367454	439.978142	-45.407763	388.160876	460.208036	-160.212871	76.549776	959.813867	-467.125206	142.625763	904.483919	-479.118321	172.441587	926.387756	-478.761862	175.786847	822.038863	-474.707137	263.524674	724.085804	-469.767654	280.358115	715.642694	-344.133624	165.031848	581.854666	-476.550189	144.225589	503.165845	-451.019749	80.946702	439.227505	-435.095168	172.581351	490.303640	-427.804169	9.896231	338.860331	-404.077894	51.266193	348.043144	-316.084865	-63.537954	313.456918	-350.822266	231.154673	219.708439	-357.008310	139.393349	239.955909	-311.021856	107.452128	230.476533	-426.499918	-215.438379	944.365056	-232.753900	-9.035269	80.046161	-432.799272	-9.306055	80.520637	-32.973811	
1	0.0050	483.414904	1400.448726	-88.657545	474.892724	1410.251779	-404.342612	413.265258	1482.361831	-244.818774	443.044005	1315.204449	-238.858242	534.261605	1139.557297	-1.164503	746.641102	943.420732	-51.461739	552.740479	1152.402876	-462.215979	751.519288	925.049812	-423.632835	-107.704261	1202.320826	-242.299922	75.122271	1203.244413	-421.601670	71.593348	1223.327966	-60.696978	84.475223	1128.862306	-392.646261	80.771627	1158.441882	-99.225532	-76.691840	1253.389079	-198.939510	-69.866548	1248.565070	-281.154887	-0.256907	1140.716722	-36.809950	2.831426	1098.002374	-440.920195	120.967890	1048.423618	-13.144111	209.885076	1044.191494	-10.266850	283.525814	998.755783	-11.042054	221.962876	1076.168506	-24.542929	402.051893	928.386241	-32.324933	412.445657	918.447897	-158.806809	348.040250	769.683347	-19.234217	339.619054	682.752234	-37.292345	285.459914	612.328767	-44.725232	365.633153	675.065039	-63.725934	234.671955	490.355021	-71.321928	257.171406	508.452290	-158.855159	174.628182	434.725508	-113.036219	480.939412	475.704976	-116.835666	367.362360	440.004682	-45.413169	388.143135	460.260563	-160.244173	76.530567	959.807609	-467.153602	142.606325	904.481008	-479.139934	172.439325	926.391506	-478.766290	175.760057	822.038855	-474.716207	263.517071	724.081855	-469.765280	280.360382	715.632104	-344.113669	165.012118	581.820083	-476.538992	144.221939	503.156005	-451.029522	80.970776	439.159157	-435.057591	172.578139	490.310743	-427.817158	9.911678	338.827897	-404.093202	51.271889	348.042229	-316.076681	-63.521533	313.427551	-350.827354	231.170001	219.701746	-357.007575	139.414057	239.931093	-311.002488	107.466964	230.459081	-426.495342	-215.449840	944.369408	-232.751364	-9.063151	79.993194	-432.848977	-9.303742	80.495698	-32.974673	
2	0.0100	483.423800	1400.462264	-88.659045	474.905683	1410.262882	-404.327337	413.253525	1482.363024	-244.806428	443.044005	1315.204449	-238.858242	534.261841	1139.560466	-1.165197	746.648598	943.420661	-51.479181	552.756087	1152.400462	-462.228374	751.520059	925.043693	-423.634842	-107.705121	1202.310229	-242.296947	75.122271	1203.244413	-421.601670	71.602015	1223.332100	-60.699071	84.475223	1128.862306	-392.646261	80.771627	1158.441882	-99.225540	-76.701456	1253.375500	-198.927365	-69.875087	1248.562664	-281.150256	-0.261936	1140.713180	-36.810115	2.829398	1098.003133	-440.916820	120.962681	1048.444606	-13.129116	209.886924	1044.229456	-10.267053	283.524538	998.787425	-11.022645	221.957965	1076.190451	-24.530579	402.049191	928.413613	-32.321210	412.456923	918.473779	-158.798418	348.036721	769.698898	-19.227920	339.633917	682.777360	-37.287031	285.456403	612.370492	-44.720219	365.627159	675.087490	-63.727186	234.656112	490.391708	-71.325258	257.155366	508.485692	-158.857019	174.614054	434.766911	-113.025373	480.927183	475.728934	-116.851361	367.341162	440.043161	-45.409651	388.117738	460.277089	-160.242015	76.527485	959.800533	-467.161052	142.597942	904.473711	-479.136305	172.419300	926.374790	-478.765237	175.750663	822.025524	-474.711483	263.503321	724.071205	-469.761169	280.347551	715.643834	-344.112181	165.014765	581.811055	-476.538251	144.223323	503.119069	-451.022816	80.971815	439.135240	-435.052506	172.580474	490.283586	-427.808737	9.920162	338.801682	-404.077135	51.290839	347.978129	-316.082448	-63.508069	313.393852	-350.816382	231.196479	219.675072	-357.005746	139.441657	239.919842	-311.023251	107.479934	230.433735	-426.513606	-215.451606	944.372719	-232.741450	-9.058148	79.961347	-432.854131	-9.302122	80.516174	-32.988844	
3	0.0150	483.438555	1400.444757	-88.665791	474.915870	1410.252583	-404.333293	413.237942	1482.377275	-244.794505	440.596756	1315.123074	-240.279260	534.142761	1139.614431	-0.586583	746.646948	943.411178	-51.490142	552.749079	1152.402506	-462.216500	751.733795	925.137196	-423.811666	-107.715983	1202.318772	-242.281097	74.492822	1203.595103	-422.534095	71.933962	1223.282114	-60.658769	82.698886	1127.197920	-389.080812	80.742869	1158.481191	-99.193204	-76.711945	1253.373813	-198.924473	-69.877860	1248.550461	-281.149766	-0.267745	1140.722351	-36.808067	2.710536	1097.916599	-441.043232	120.876206	1048.405455	-13.124801	209.886562	1044.251511	-10.272304	283.604890	998.749043	-10.965318	221.133478	1076.630384	-25.269297	402.070267	928.431673	-32.306018	412.467831	918.502552	-158.803002	348.033668	769.720793	-19.189971	339.630612	682.818569	-37.293683	285.444951	612.407248	-44.718455	367.165147	676.271404	-63.476610	234.337163	490.562326	-71.173647	258.342009	507.765399	-157.708738	174.585098	434.803748	-113.025109	480.912602	475.751359	-116.848187	367.075863	440.143589	-45.273991	388.150670	460.266797	-160.299119	76.521253	959.800991	-467.229199	142.602763	904.464648	-479.132261	173.104994	925.696343	-477.680268	175.743612	822.022830	-474.696551	264.155869	723.120643	-467.933241	280.297506	715.613648	-344.108736	165.642650	580.845474	-474.855271	144.223339	503.118977	-451.022785	81.119119	438.969431	-435.049320	173.264783	490.429557	-425.198272	9.888587	338.803910	-403.992929	51.315669	347.985950	-316.089408	-63.490930	313.347838	-350.819520	231.216168	219.654194	-356.998329	139.461005	239.879437	-311.005214	108.144942	228.827178	-424.313389	-215.509960	944.395783	-233.143171	-9.064771	80.000693	-432.844956	-9.297186	80.513232	-32.974345	
